<svg id="Layer_1" data-name="Layer 1" xmlns="http://www.w3.org/2000/svg" viewBox="0 0 300 300"><defs><style>.cls-1,.cls-2{fill:none;}.cls-1{stroke:#727272;}.cls-1,.cls-2,.cls-3{stroke-linecap:round;stroke-linejoin:round;stroke-width:3px;}.cls-2{stroke:#e2bd61;}.cls-3{fill:#be9a30;stroke:#be9a30;}</style></defs><path class="cls-1" d="M236.29,32.86H63.71L32.86,63.71V236.29l30.85,30.86H236.29l30.86-30.86V63.71ZM150,207.19,92.82,150,150,92.82,207.18,150Z"/><polygon class="cls-2" points="298 32.86 267.15 63.71 236.29 32.86 267.15 2 298 32.86"/><polygon class="cls-3" points="298 267.15 267.15 298 236.29 267.15 267.15 236.29 298 267.15"/><polygon class="cls-3" points="63.71 32.86 32.86 63.71 2 32.86 32.86 2 63.71 32.86"/><polygon class="cls-2" points="63.71 267.15 32.86 298 2 267.15 32.86 236.29 63.71 267.15"/><polygon class="cls-1" points="207.18 150.01 150.01 207.19 92.82 150.01 150.01 92.82 207.18 150.01"/></svg>