<svg id="Layer_1" data-name="Layer 1" xmlns="http://www.w3.org/2000/svg" xmlns:xlink="http://www.w3.org/1999/xlink" viewBox="0 0 762 762"><defs><style>.cls-1,.cls-3{fill:none;}.cls-2{clip-path:url(#clip-path);}.cls-3{stroke:#424242;stroke-linecap:round;stroke-linejoin:round;stroke-width:3px;}</style><clipPath id="clip-path"><rect class="cls-1" x="-0.01" y="-0.01" width="762.02" height="762.02"/></clipPath></defs><g class="cls-2"><circle class="cls-3" cx="63.57" cy="305.89" r="133.71"/><circle class="cls-3" cx="63.57" cy="305.89" r="97.5"/><polyline class="cls-3" points="32.01 342.99 95.64 342.99 95.64 306.15 32.01 306.15 32.01 269.32 95.64 269.32"/><line class="cls-3" x1="53.54" y1="252.45" x2="53.54" y2="359.85"/><line class="cls-3" x1="74.11" y1="252.45" x2="74.11" y2="359.85"/><circle class="cls-3" cx="470.45" cy="684.45" r="133.71"/><circle class="cls-3" cx="470.45" cy="684.45" r="97.5"/><line class="cls-3" x1="483.61" y1="674.57" x2="411.98" y2="674.57"/><line class="cls-3" x1="483.61" y1="695.14" x2="411.98" y2="695.14"/><path class="cls-3" d="M498.93,729.15a49.37,49.37,0,1,1,0-88.59"/><circle class="cls-3" cx="383.75" cy="371.66" r="133.71"/><circle class="cls-3" cx="383.75" cy="371.66" r="97.5"/><polyline class="cls-3" points="383.51 316.74 336.15 344.08 336.15 398.76 383.51 426.11 430.87 398.76"/><line class="cls-3" x1="378.15" y1="390.16" x2="430.39" y2="360"/><line class="cls-3" x1="417.59" y1="336.63" x2="365.34" y2="366.79"/></g></svg>