<svg id="Layer_1" data-name="Layer 1" xmlns="http://www.w3.org/2000/svg" xmlns:xlink="http://www.w3.org/1999/xlink" viewBox="0 0 762 762"><defs><style>.cls-1,.cls-3{fill:none;}.cls-2{clip-path:url(#clip-path);}.cls-3{stroke:#424242;stroke-linecap:round;stroke-linejoin:round;stroke-width:3px;}</style><clipPath id="clip-path"><rect class="cls-1" x="-0.01" y="-0.01" width="762.02" height="762.02" transform="translate(762 762) rotate(-180)"/></clipPath></defs><g class="cls-2"><circle class="cls-3" cx="698.43" cy="305.89" r="133.71"/><circle class="cls-3" cx="698.43" cy="305.89" r="97.5"/><polyline class="cls-3" points="666.36 342.99 729.99 342.99 729.99 306.15 666.36 306.15 666.36 269.32 729.99 269.32"/><line class="cls-3" x1="687.89" y1="252.45" x2="687.89" y2="359.85"/><line class="cls-3" x1="708.46" y1="252.45" x2="708.46" y2="359.85"/><circle class="cls-3" cx="291.55" cy="684.45" r="133.71"/><circle class="cls-3" cx="291.55" cy="684.45" r="97.5"/><line class="cls-3" x1="306.02" y1="674.57" x2="234.39" y2="674.57"/><line class="cls-3" x1="306.02" y1="695.14" x2="234.39" y2="695.14"/><path class="cls-3" d="M321.34,729.15a49.37,49.37,0,1,1,0-88.59"/><circle class="cls-3" cx="378.25" cy="371.66" r="133.71"/><circle class="cls-3" cx="378.25" cy="371.66" r="97.5"/><polyline class="cls-3" points="378.49 316.74 331.13 344.08 331.13 398.76 378.49 426.11 425.85 398.76"/><line class="cls-3" x1="373.13" y1="390.16" x2="425.37" y2="360"/><line class="cls-3" x1="412.57" y1="336.63" x2="360.33" y2="366.79"/></g></svg>