<svg id="Layer_1" data-name="Layer 1" xmlns="http://www.w3.org/2000/svg" xmlns:xlink="http://www.w3.org/1999/xlink" viewBox="0 0 762 762"><defs><style>.cls-1,.cls-3{fill:none;}.cls-2{clip-path:url(#clip-path);}.cls-3{stroke:#424242;stroke-linecap:round;stroke-linejoin:round;stroke-width:3px;}</style><clipPath id="clip-path"><rect class="cls-1" x="-0.01" y="-0.01" width="762.02" height="762.02" transform="translate(762 762) rotate(-180)"/></clipPath></defs><g class="cls-2"><polygon class="cls-3" points="598.26 435.81 761.48 599.02 924.76 435.81 761.48 272.52 598.26 435.81"/><polygon class="cls-3" points="271.76 435.81 434.98 599.02 598.26 435.81 434.98 272.52 271.76 435.81"/><polygon class="cls-3" points="330.01 435.79 434.99 540.77 540.01 435.79 434.99 330.77 330.01 435.79"/><polygon class="cls-3" points="656.51 435.79 761.49 540.77 866.51 435.79 761.49 330.77 656.51 435.79"/><polygon class="cls-3" points="330.01 762.29 434.99 867.27 540.01 762.29 434.99 657.27 330.01 762.29"/><polygon class="cls-3" points="656.54 762.33 761.52 867.3 866.54 762.33 761.52 657.3 656.54 762.33"/><polygon class="cls-3" points="598.29 762.34 761.51 925.55 924.79 762.34 761.51 599.05 598.29 762.34"/><polygon class="cls-3" points="271.76 762.3 434.98 925.52 598.26 762.3 434.98 599.02 271.76 762.3"/><polygon class="cls-3" points="631.08 649.72 609.57 612.45 630.29 612.45 630.29 548.36 566.2 548.36 566.2 612.45 586.92 612.45 565.41 649.72 631.08 649.72"/></g></svg>