<svg id="Layer_1" data-name="Layer 1" xmlns="http://www.w3.org/2000/svg" xmlns:xlink="http://www.w3.org/1999/xlink" viewBox="0 0 762 762"><defs><style>.cls-1,.cls-3{fill:none;}.cls-2{clip-path:url(#clip-path);}.cls-3{stroke:#424242;stroke-linecap:round;stroke-linejoin:round;stroke-width:3px;}</style><clipPath id="clip-path"><rect class="cls-1" x="-0.01" y="-0.01" width="762.02" height="762.02"/></clipPath></defs><g class="cls-2"><polygon class="cls-3" points="163.74 435.81 0.52 599.02 -162.76 435.81 0.52 272.52 163.74 435.81"/><polygon class="cls-3" points="490.24 435.81 327.02 599.02 163.74 435.81 327.02 272.52 490.24 435.81"/><polygon class="cls-3" points="431.99 435.79 327.01 540.77 221.99 435.79 327.01 330.77 431.99 435.79"/><polygon class="cls-3" points="105.49 435.79 0.51 540.77 -104.51 435.79 0.51 330.77 105.49 435.79"/><polygon class="cls-3" points="431.99 762.29 327.01 867.27 221.99 762.29 327.01 657.27 431.99 762.29"/><polygon class="cls-3" points="105.46 762.33 0.48 867.3 -104.54 762.33 0.48 657.3 105.46 762.33"/><polygon class="cls-3" points="163.71 762.34 0.49 925.55 -162.79 762.34 0.49 599.05 163.71 762.34"/><polygon class="cls-3" points="490.24 762.3 327.02 925.52 163.74 762.3 327.02 599.02 490.24 762.3"/><polygon class="cls-3" points="130.92 649.72 152.44 612.45 131.71 612.45 131.71 548.36 195.8 548.36 195.8 612.45 175.08 612.45 196.59 649.72 130.92 649.72"/></g></svg>