<?xml version="1.0" encoding="utf-8"?>
<!-- Generator: Adobe Illustrator 26.1.0, SVG Export Plug-In . SVG Version: 6.00 Build 0)  -->
<svg version="1.1" id="Layer_1" xmlns="http://www.w3.org/2000/svg" xmlns:xlink="http://www.w3.org/1999/xlink" x="0px" y="0px"
	 viewBox="0 0 381.7 378.8" style="enable-background:new 0 0 381.7 378.8;" xml:space="preserve">
<style type="text/css">
	.st0{enable-background:new    ;}
	.st1{fill:#BE9A30;}
	.st2{fill:none;stroke:#BE9A30;stroke-width:2;stroke-linecap:round;stroke-linejoin:round;}
	.st3{fill:none;stroke:#727272;stroke-width:1.5;stroke-linecap:round;stroke-linejoin:round;}
	.st4{fill:none;stroke:#C9C9C9;stroke-width:1.5;stroke-linecap:round;stroke-linejoin:round;}
	.st5{fill:none;stroke:#474747;stroke-width:1.5;stroke-linecap:round;stroke-linejoin:round;}
</style>
<g transform="translate(10,10) scale(1 1)">
</g>
<g>
	<g>
		<g class="st0">
			<path class="st1" d="M159.8,164h-2.1v2.7h-2.9V164h-6.9v-2l6.1-8.2h3.1l-5.6,7.7h3.5v-2.4h2.8v2.4h2.1V164z"/>
			<path class="st1" d="M171.6,163c0,2.4-2.2,4-5.4,4c-3.3,0-5.4-1.5-5.4-4c0-1.4,0.7-2.4,1.9-3c-1-0.6-1.5-1.5-1.5-2.6
				c0-2.3,2-3.7,4.9-3.7c3,0,5,1.4,5,3.7c0,1.2-0.6,2.1-1.5,2.6C170.9,160.5,171.6,161.6,171.6,163z M168.6,162.9
				c0-1.1-0.9-1.8-2.4-1.8c-1.5,0-2.4,0.7-2.4,1.8c0,1.1,0.9,1.9,2.4,1.9C167.6,164.7,168.6,164,168.6,162.9z M164.2,157.4
				c0,1,0.8,1.6,2,1.6c1.2,0,2-0.6,2-1.6c0-1-0.8-1.6-2-1.6C165,155.8,164.2,156.4,164.2,157.4z"/>
			<path class="st1" d="M172.6,157.2c0-2.2,1.3-3.5,3.2-3.5c1.9,0,3.2,1.4,3.2,3.5c0,2.2-1.3,3.5-3.2,3.5
				C173.9,160.8,172.6,159.4,172.6,157.2z M177.1,157.2c0-1.4-0.5-2-1.3-2c-0.8,0-1.3,0.7-1.3,2c0,1.4,0.6,2,1.3,2
				C176.6,159.3,177.1,158.6,177.1,157.2z M183.4,153.8h2.2l-8.8,12.9h-2.2L183.4,153.8z M181.3,163.3c0-2.2,1.3-3.5,3.2-3.5
				c1.9,0,3.2,1.4,3.2,3.5s-1.3,3.5-3.2,3.5C182.6,166.8,181.3,165.5,181.3,163.3z M185.8,163.3c0-1.4-0.5-2-1.3-2
				c-0.8,0-1.3,0.7-1.3,2s0.6,2,1.3,2C185.3,165.3,185.8,164.6,185.8,163.3z"/>
			<path class="st1" d="M194.1,160.3c0-3.9,3-6.7,7-6.7c2.2,0,4.1,0.8,5.3,2.3l-1.9,1.8c-0.9-1-1.9-1.5-3.2-1.5
				c-2.4,0-4.1,1.7-4.1,4.1s1.7,4.1,4.1,4.1c1.3,0,2.4-0.5,3.2-1.5l1.9,1.8c-1.2,1.5-3.1,2.3-5.3,2.3
				C197.1,166.9,194.1,164.1,194.1,160.3z"/>
			<path class="st1" d="M219.6,158.5c0,2.9-2.2,4.7-5.6,4.7h-2.6v3.5h-3v-12.9h5.6C217.4,153.8,219.6,155.6,219.6,158.5z
				 M216.5,158.5c0-1.4-0.9-2.2-2.7-2.2h-2.4v4.5h2.4C215.6,160.7,216.5,159.9,216.5,158.5z"/>
			<path class="st1" d="M221.5,161v-7.2h3v7.1c0,2.4,1.1,3.5,2.9,3.5c1.8,0,2.9-1,2.9-3.5v-7.1h2.9v7.2c0,3.8-2.2,5.9-5.8,5.9
				C223.7,166.9,221.5,164.8,221.5,161z"/>
		</g>
		<g class="st0">
			<path class="st1" d="M159.8,193.1h-2.1v2.7h-2.9v-2.7h-6.9v-2l6.1-8.2h3.1l-5.6,7.7h3.5v-2.4h2.8v2.4h2.1V193.1z"/>
			<path class="st1" d="M171.6,192.1c0,2.4-2.2,4-5.4,4c-3.3,0-5.4-1.5-5.4-4c0-1.4,0.7-2.4,1.9-3c-1-0.6-1.5-1.5-1.5-2.6
				c0-2.3,2-3.7,4.9-3.7c3,0,5,1.4,5,3.7c0,1.2-0.6,2.1-1.5,2.6C170.9,189.7,171.6,190.7,171.6,192.1z M168.6,192
				c0-1.1-0.9-1.8-2.4-1.8c-1.5,0-2.4,0.7-2.4,1.8c0,1.1,0.9,1.9,2.4,1.9C167.6,193.9,168.6,193.1,168.6,192z M164.2,186.5
				c0,1,0.8,1.6,2,1.6c1.2,0,2-0.6,2-1.6c0-1-0.8-1.6-2-1.6C165,184.9,164.2,185.5,164.2,186.5z"/>
			<path class="st1" d="M172.6,186.4c0-2.2,1.3-3.5,3.2-3.5s3.2,1.4,3.2,3.5c0,2.2-1.3,3.5-3.2,3.5S172.6,188.5,172.6,186.4z
				 M177.1,186.4c0-1.4-0.5-2-1.3-2c-0.8,0-1.3,0.7-1.3,2c0,1.4,0.6,2,1.3,2C176.6,188.4,177.1,187.7,177.1,186.4z M183.4,182.9h2.2
				l-8.8,12.9h-2.2L183.4,182.9z M181.3,192.4c0-2.2,1.3-3.5,3.2-3.5c1.9,0,3.2,1.4,3.2,3.5s-1.3,3.5-3.2,3.5
				C182.6,196,181.3,194.6,181.3,192.4z M185.8,192.4c0-1.4-0.5-2-1.3-2c-0.8,0-1.3,0.7-1.3,2s0.6,2,1.3,2
				C185.3,194.5,185.8,193.8,185.8,192.4z"/>
			<path class="st1" d="M203.6,189.2h2.7v5.2c-1.4,1.1-3.4,1.6-5.2,1.6c-4,0-7-2.8-7-6.7s3-6.7,7.1-6.7c2.3,0,4.1,0.8,5.4,2.2
				l-1.9,1.8c-0.9-1-2-1.5-3.3-1.5c-2.5,0-4.2,1.7-4.2,4.1c0,2.4,1.7,4.1,4.2,4.1c0.8,0,1.6-0.1,2.3-0.6V189.2z"/>
			<path class="st1" d="M220.3,187.6c0,2.9-2.2,4.7-5.6,4.7h-2.6v3.5h-3v-12.9h5.6C218.1,182.9,220.3,184.7,220.3,187.6z
				 M217.2,187.6c0-1.4-0.9-2.2-2.7-2.2h-2.4v4.5h2.4C216.3,189.8,217.2,189,217.2,187.6z"/>
			<path class="st1" d="M222.2,190.2v-7.2h3v7.1c0,2.4,1.1,3.5,2.9,3.5c1.8,0,2.9-1,2.9-3.5v-7.1h2.9v7.2c0,3.8-2.2,5.9-5.8,5.9
				S222.2,193.9,222.2,190.2z"/>
		</g>
		<g class="st0">
			<path class="st1" d="M159.8,222.3h-2.1v2.7h-2.9v-2.7h-6.9v-2l6.1-8.2h3.1l-5.6,7.7h3.5v-2.4h2.8v2.4h2.1V222.3z"/>
			<path class="st1" d="M159.9,215.5c0-2.2,1.3-3.5,3.2-3.5c1.9,0,3.2,1.4,3.2,3.5c0,2.2-1.3,3.5-3.2,3.5
				C161.2,219,159.9,217.7,159.9,215.5z M164.4,215.5c0-1.4-0.5-2-1.3-2c-0.8,0-1.3,0.7-1.3,2c0,1.4,0.6,2,1.3,2
				C163.9,217.5,164.4,216.9,164.4,215.5z M170.7,212.1h2.2l-8.8,12.9h-2.2L170.7,212.1z M168.6,221.6c0-2.2,1.3-3.5,3.2-3.5
				c1.9,0,3.2,1.4,3.2,3.5s-1.3,3.5-3.2,3.5C169.9,225.1,168.6,223.7,168.6,221.6z M173.1,221.6c0-1.4-0.5-2-1.3-2
				c-0.8,0-1.3,0.7-1.3,2s0.6,2,1.3,2C172.6,223.6,173.1,222.9,173.1,221.6z"/>
			<path class="st1" d="M190.7,222.2h-6l-1.1,2.8h-3.1l5.7-12.9h2.9L195,225h-3.1L190.7,222.2z M189.8,219.9l-2-4.9l-2,4.9H189.8z"
				/>
			<path class="st1" d="M195.3,223.7l1-2.2c1.1,0.8,2.7,1.3,4.2,1.3c1.8,0,2.5-0.6,2.5-1.4c0-2.4-7.5-0.8-7.5-5.5c0-2.2,1.8-4,5.4-4
				c1.6,0,3.3,0.4,4.5,1.1l-0.9,2.3c-1.2-0.7-2.4-1-3.6-1c-1.8,0-2.4,0.7-2.4,1.5c0,2.4,7.5,0.7,7.5,5.5c0,2.2-1.8,4-5.5,4
				C198.5,225.2,196.4,224.6,195.3,223.7z"/>
			<path class="st1" d="M208,212.1h3V225h-3V212.1z"/>
			<path class="st1" d="M213.3,218.5c0-3.9,3-6.7,7-6.7c2.2,0,4.1,0.8,5.3,2.3l-1.9,1.8c-0.9-1-1.9-1.5-3.2-1.5
				c-2.4,0-4.1,1.7-4.1,4.1s1.7,4.1,4.1,4.1c1.3,0,2.4-0.5,3.2-1.5l1.9,1.8c-1.2,1.5-3.1,2.3-5.3,2.3
				C216.3,225.2,213.3,222.4,213.3,218.5z"/>
		</g>
	</g>
	<polyline class="st2" points="298.4,155.2 263.5,190.1 241.4,190.1 	"/>
	<g>
		<path class="st3" d="M185.9,365.4c-45.1-1.2-87.4-19.4-119.5-51.4c-33.2-33.2-51.6-77.4-51.6-124.4c0-86.7,63.6-160.6,148.8-173.9
			l9.6,75.5c-47.3,8.4-82.4,49.8-82.4,98.4c0,53.5,42.2,97.2,95,99.8L185.9,365.4z"/>
		<path class="st4" d="M239.6,358.5l-19-73.6c41.6-12.9,70.2-51.5,70.2-95.5c0-55.1-44.8-100-100-100c-2.5,0-5.1,0.1-7.6,0.3
			l-9.5-75.5C268.1,5,353.5,72.7,365.4,167.4C376.3,253.4,322.5,334.6,239.6,358.5z"/>
		<path class="st5" d="M229.8,361.1c-11.1,2.5-22.3,3.9-33.7,4.3l-0.1-76.1c5-0.2,10-0.9,14.9-1.9L229.8,361.1z"/>
	</g>
	<polyline class="st2" points="83,195.9 118,160.9 140.1,160.9 	"/>
	<line class="st2" x1="204.9" y1="301.2" x2="200.7" y2="231.8"/>
</g>
</svg>
