<svg id="Layer_1" data-name="Layer 1" xmlns="http://www.w3.org/2000/svg" viewBox="0 0 381.69 378.78"><defs><style>.cls-1,.cls-2,.cls-3,.cls-9{fill:none;stroke-linecap:round;stroke-linejoin:round;}.cls-1{stroke:#c9c9c9;}.cls-1,.cls-2,.cls-3{stroke-width:1.5px;}.cls-2{stroke:#727272;}.cls-3{stroke:#474747;}.cls-4{font-size:18.39px;fill:#be9a30;font-family:Montserrat-Bold, Montserrat;font-weight:700;}.cls-5{letter-spacing:-0.01em;}.cls-6{letter-spacing:-0.01em;}.cls-7{letter-spacing:0em;}.cls-8{letter-spacing:0.01em;}.cls-9{stroke:#be9a30;stroke-width:2px;}</style></defs><path class="cls-1" d="M370.54,214.89a179.89,179.89,0,0,1-48.29,99.69l-65-65.48a89.29,89.29,0,0,0-62.44-148.93l-1.1-92.28a184.56,184.56,0,0,1,22.69,1.8C315.45,23.77,384.61,115.82,370.54,214.89Z"/><path class="cls-2" d="M296.64,336.83a181.48,181.48,0,0,1-285.47-173C23.44,77.53,97.14,11.35,183.69,8l1.1,92.3a89.29,89.29,0,1,0,56,163.09Z"/><path class="cls-3" d="M250.13,256.14l-1.35,1.18,55.83,73.46q5.43-4.36,10.54-9.16Z"/><text class="cls-4" transform="translate(147.47 165.63)">60% C<tspan class="cls-5" x="59.03" y="0">P</tspan><tspan x="72.25" y="0">U</tspan></text><text class="cls-4" transform="translate(147.81 194.76)">3<tspan class="cls-6" x="10.89" y="0">8</tspan><tspan x="22.85" y="0">% G</tspan><tspan class="cls-5" x="58.36" y="0">P</tspan><tspan class="cls-7" x="71.59" y="0">U</tspan></text><text class="cls-4" transform="translate(151.99 223.9)"><tspan class="cls-8">2</tspan><tspan x="11.04" y="0">% ASIC</tspan></text><polyline class="cls-9" points="82.77 194.76 117.71 159.83 139.79 159.83"/><polyline class="cls-9" points="298.15 153.21 263.21 188.15 241.13 188.15"/><polyline class="cls-9" points="268.14 277.44 251.89 229.88 235.34 218.26"/></svg>