<svg id="Layer_1" data-name="Layer 1" xmlns="http://www.w3.org/2000/svg" viewBox="0 0 300 300"><defs><style>.cls-1,.cls-2{fill:none;stroke-linecap:round;stroke-linejoin:round;stroke-width:3px;}.cls-1{stroke:#727272;}.cls-2{stroke:#e2bd61;}</style></defs><path class="cls-1" d="M236.28,32.85H63.71L32.86,63.71V236.29l30.85,30.86H236.29l30.85-30.86V63.71ZM201.9,180l-51.9,30L98.12,180V120.05l51.88-30,51.9,30Z"/><polygon class="cls-1" points="297.99 32.85 267.14 63.71 236.28 32.85 267.14 2.01 297.99 32.85"/><polygon class="cls-1" points="298 267.15 267.14 297.99 236.29 267.15 267.14 236.29 298 267.15"/><polygon class="cls-1" points="63.71 32.85 32.86 63.71 2 32.85 32.86 2.01 63.71 32.85"/><polygon class="cls-1" points="63.71 267.15 32.86 297.99 2 267.15 32.86 236.29 63.71 267.15"/><polygon class="cls-2" points="201.9 120.05 201.9 179.96 150 209.92 98.12 179.96 98.12 120.05 150 90.09 201.9 120.05"/></svg>