<svg id="Layer_1" data-name="Layer 1" xmlns="http://www.w3.org/2000/svg" viewBox="0 0 512 512"><defs><style>.cls-1{fill:#e2e2e3;}</style></defs><path class="cls-1" d="M256,6C117.93,6,6,117.93,6,256S117.93,506,256,506,506,394.07,506,256,394.07,6,256,6ZM385.91,166.38l-39.43,186c-3,13.13-10.74,16.39-21.76,10.21l-60.09-44.27-29,27.88c-3.2,3.21-5.89,5.89-12.07,5.89l4.32-61.19L339.24,190.24c4.84-4.32-1.05-6.71-7.52-2.4L194.05,274.53,134.79,256c-12.89-4-13.13-12.89,2.68-19.08l231.81-89.3C380,143.57,389.41,150,385.91,166.38Z"/></svg>